#define minus22_width 18
#define minus22_height 18
static char minus22_bits[] = {
   0xff, 0xff, 0x03, 0xff, 0xff, 0x03, 0x03, 0x00, 0x03, 0x03, 0x00, 0x03,
   0x03, 0x00, 0x03, 0x03, 0x00, 0x03, 0x03, 0x00, 0x03, 0x03, 0x00, 0x03,
   0xf3, 0x3f, 0x03, 0xf3, 0x3f, 0x03, 0x03, 0x00, 0x03, 0x03, 0x00, 0x03,
   0x03, 0x00, 0x03, 0x03, 0x00, 0x03, 0x03, 0x00, 0x03, 0x03, 0x00, 0x03,
   0xff, 0xff, 0x03, 0xff, 0xff, 0x03};
